# xmcd
#
# Track frame offsets:
#	150
#	18257
#	35087
#	51140
#	65532
#	84190
#	99975
#	117555
#	137002
#	154180
#	174612
#	190985
#	208200
#	223075
#	239145
#
# Disc length: 3487 seconds
#
# Revision: 1
# Processed by: cddbd v1.5.1PL0 Copyright (c) Steve Scherf et al.
# Submitted via: CDex 1.50Beta5
#
DISCID=dd0d9d0f
DTITLE=Various Artist - オール・ニューミュージック・ヒット・コレクション60
DYEAR=1900
DGENRE=
TTITLE0=MIE/NEVER
TTITLE1=五輪真弓/熱いさよなら
TTITLE2=桃井かおり/東京慕情
TTITLE3=白井貴子/CHANCE!
TTITLE4=マリーン/テイクマイタイム
TTITLE5=Hi-Fi SET/水色のワゴン
TTITLE6=須藤薫/裸足のままで
TTITLE7=上田正樹/TAKAKO
TTITLE8=杉真理/いとしのテラ
TTITLE9=小林麻美/雨音はショパンの調べ
TTITLE10=南佳孝/スタンダードナンバー
TTITLE11=村下孝蔵/少女
TTITLE12=HOUND DOG/Please Please Please
TTITLE13=Hi-Fi SET/素直になりたい
TTITLE14=石田えり/ひとりきりパラダイズ
EXTD=
EXTT0=
EXTT1=
EXTT2=
EXTT3=
EXTT4=
EXTT5=
EXTT6=
EXTT7=
EXTT8=
EXTT9=
EXTT10=
EXTT11=
EXTT12=
EXTT13=
EXTT14=
PLAYORDER=
